<svg xmlns="http://www.w3.org/2000/svg" width="1960" height="134.385" viewBox="0 0 1960 134.385"><g transform="translate(20 -964.288)"><path d="M-559.533,4321.381l32.55-10.765,10.9,2.256,12.491-6.327h18.2l9.177-8.118,26.061-9.436h14.934l16.851-12.842h17.522l4.684,3.142,10.095-5.288h13.379l6.034,3.855,24.214-8.917H-325.1l4.71,2.743,16.268-11.242,20.319,8.5h10.267l11.036,8.917,10.359,1.433,8.291-5.288,27.551,8.443h28.747l11.4-6.3,16.809,1.709,12.413-6.175,32.244,4.466,18.376,9.1,51.314-22.2,59.582-21.139H34.014l7.833-10.184h21.6l70.77-22.55,21.493-1.36,15.215-7.213,21.693-3.076h24.021L247.173,4187l77.819,20.817h17.4l7.345,9.256,35.07,5.166,55.443,19.673,27.378,1.082,6.332,5.874,18.471,3.6L572,4283.07l20.289,1.919,10.026,8,28.164-9.918h33.353l35.606,8.113,24.963,8.93,15.517,12.78,47.462,1.708,35.2,5.377Z" transform="translate(539.532 -3222.709)" fill="#113559"/><path d="M632.848,4376.35l-53.055-18.817-15.987,2.893-68.47-24.72-11.659,4.094-79.99-33.1-25.711,7.486-20.334-7.486-20.975,8.777-42.637-15.039h-22.4l-7.824,3.675-12.4-11.279H226.1l-44.28-20.728L144.988,4262,97.62,4280.589l-25.884,16.375L49.2,4291.828l-14.661,6.623L12.8,4296.107l-46.055,12.925H-47.475l-24.308-11.364-19.08,6.734h-26.893l-20.982,8.011h-44.852l-14.865,7.289h-22.007l-10.18-3.126-8.953,9.554h-25.32l-8.87,4.783h-27.247l-20.852,12.585-19.766,2.621-8.2,8.68-25.9,2.156-16.445,6.324h-43l-31.6,9.439h-35.53l-10.4-2.642-15.877,2.642h-15.459l-10.713,5.141H639Z" transform="translate(1301.002 -3287.986)" fill="#113559"/></g></svg>